<svg xmlns="http://www.w3.org/2000/svg" viewBox="0 0 385 240"><path d="M202.101 229.905c-12.822-15.927-1.63-37.043-22.27-37.774-31.385 10.209-48.383 9.715-91.252 11.496C45.709 205.41 5.88 176.9 7.116 136.88c1.234-40.02 15.93-56.995 29.169-78.047C48.625 39.517 69.66 26.42 90.944 18.89c12.279-4.541 25.158-6.527 37.84-9.46 16.91-4.326 25.08-.752 40.47-1.052 21.328 4.467 36.7 9.287 54.396 14.98 38.7 11.53 43.928 5.463 86.981 4.992 21.456.261 37.591-1.382 50.98 15.242 7.626 12.208 15.303 26.743 16.293 43.622-2.985 16.06-10.69 29.94-19.972 45.199-8.009 14.535-22.641 24.743-34.424 36.527-16.953 12.501-37.921 18.157-58.864 20.76-8.76 0-28.819-4.468-37.578-4.468-24.485-.925-24.78 21.39-24.965 44.673z" style="marker:none" color="#000" display="inline" overflow="visible" visibility="visible" fill="#fefefe" fill-opacity="1" fill-rule="evenodd" stroke="#000" stroke-width="3.12172" stroke-linecap="round" stroke-linejoin="miter" stroke-miterlimit="4" stroke-dasharray="none" stroke-dashoffset="0" stroke-opacity="1" marker-start="none" marker-mid="none" marker-end="none"/><path d="M45.482 142.136c-.325 1.3.463-2.642.788-3.942.437-1.748-1.066-2.04-2.365-2.365-2.9.438-5.158 4.41-6.044 7.095 0 1.926 1.785 1.828 3.154 2.102 1.557.312 2.385.253 3.416-.263 1.335-.667.808-2.285 1.314-.262.317 1.27 2.35 1.573 3.416 1.84 2.551-.786 3.368-3.387 3.942-5.782.747-2.92.706-5.838-.263-8.672-1.676-2.84-3.954-3.744-7.095-3.679-3.054-.088-5.593.632-7.884 2.628-1.904 1.621-2.971 3.914-4.204 6.044-2.332 2.507-2.586 5.465-3.154 8.672-.003 3.11 1.035 5.668 3.154 7.883 2.76 3.245 6.172 4.259 10.248 3.68 1.509-.378 3.283.098 4.73-.264" style="marker:none" color="#000" display="inline" overflow="visible" visibility="visible" fill="none" fill-opacity=".75" fill-rule="evenodd" stroke="#000" stroke-width="3.12172" stroke-linecap="round" stroke-linejoin="miter" stroke-miterlimit="4" stroke-dasharray="none" stroke-dashoffset="0" stroke-opacity="1" marker-start="none" marker-mid="none" marker-end="none"/><path d="M55.468 75.914c-3.905 11.467-8.358 24.93-9.46 37.184M66.768 77.228c-3.849 7.532-8.09 23.651-10.25 36.264" fill="none" fill-opacity=".75" fill-rule="evenodd" stroke="#000" stroke-width="3.12172" stroke-linecap="round" stroke-linejoin="miter" stroke-miterlimit="4" stroke-dasharray="none" stroke-opacity="1"/><path d="M40.226 87.476c10.128-1.49 22.356-.263 30.483-.262M68.081 99.827c-8.893-.409-18.598-.501-27.855.526" fill="none" fill-opacity=".75" fill-rule="evenodd" stroke="#000" stroke-width="3.12172" stroke-linecap="round" stroke-linejoin="miter" stroke-miterlimit="4" stroke-dasharray="none" stroke-opacity="1"/><path d="m99.616 110.601-6.833 16.03-4.204-9.41-13.536 40.75 15.242-27.365 4.993 10.249 11.958-27.626z" style="marker:none" color="#000" display="inline" overflow="visible" visibility="visible" fill="none" fill-opacity=".75" fill-rule="evenodd" stroke="#000" stroke-width="3.12172" stroke-linecap="round" stroke-linejoin="miter" stroke-miterlimit="4" stroke-dasharray="none" stroke-dashoffset="0" stroke-opacity="1" marker-start="none" marker-mid="none" marker-end="none"/><path d="M97.776 113.755c-1.385 0-.715-2.835-1.84-3.68-4.016-1.79-7.506 1.811-11.562.526-2.283-2.144-2.108-5.272-1.577-8.146 1.58-2.514 4.33-1.156 4.468-4.73 0-1.566-2.103-1.632-2.103-3.942s2.606-4.593 5.256-5.255c7.735-1.607 1.328-4.723 4.844-10.084 1.018-1.696 6.501-.793 7.639.345 2.67 1.541 4.763-2.623 7.226-3.926 4.285-1.833 8.665-.334 12.614 1.577 4.108 2.353 6.609 6.24 7.62 10.774.47 2.346 3.452 6.45 3.942 8.409.388 2.834.354 6.152-1.577 8.409-2.663 3.358-5.217-.732-4.993 4.204 0 3.008-.471 3.641-2.365 4.993-3.17 1.78-6.065-3.591-8.146-1.84-1.921 1.619-1.757 5.54-5.518 6.57-1.634.409-4.051.209-5.519-.525-2.601-3.16-4.334-3.868-8.409-3.68z" style="marker:none" color="#000" display="inline" overflow="visible" visibility="visible" fill="#555" fill-opacity="1" fill-rule="evenodd" stroke="#000" stroke-width="3" stroke-linecap="butt" stroke-linejoin="miter" stroke-miterlimit="4" stroke-dasharray="none" stroke-dashoffset="0" stroke-opacity="1" marker-start="none" marker-mid="none" marker-end="none"/><path d="m126.682 167.1 59.39-6.57-60.44 20.235z" style="marker:none" color="#000" display="inline" overflow="visible" visibility="visible" fill="none" fill-opacity=".75" fill-rule="evenodd" stroke="#000" stroke-width="3.12172" stroke-linecap="round" stroke-linejoin="miter" stroke-miterlimit="4" stroke-dasharray="none" stroke-dashoffset="0" stroke-opacity="1" marker-start="none" marker-mid="none" marker-end="none"/><path d="m125.894 173.932 59.126-13.402" style="marker:none" color="#000" display="inline" overflow="visible" visibility="visible" fill="none" fill-opacity=".75" fill-rule="evenodd" stroke="#000" stroke-width="3.12172" stroke-linecap="round" stroke-linejoin="miter" stroke-miterlimit="4" stroke-dasharray="none" stroke-dashoffset="0" stroke-opacity="1" marker-start="none" marker-mid="none" marker-end="none"/><path d="m130.361 160.793-9.723-.525.263 11.037-13.665-.263v10.774l11.563-2.365-.526 8.146 11.3-1.05z" style="marker:none" color="#000" display="inline" overflow="visible" visibility="visible" fill="#000" fill-opacity="1" fill-rule="evenodd" stroke="none" stroke-width="1px" stroke-linecap="butt" stroke-linejoin="miter" stroke-miterlimit="4" stroke-dasharray="none" stroke-dashoffset="0" stroke-opacity="1" marker-start="none" marker-mid="none" marker-end="none"/><path d="m229.694 137.668-22.6 19.71s-15.373-1.807-11.169 3.185c4.205 4.993 8.213 4.764 8.213 4.764s-4.73 15.767 1.05 8.934c5.782-6.832 8.082-9.395 8.082-9.395l20.234-19.511s16.424-4.008 9.592-6.373c-6.833-2.365-5.945-2.365-5.945-2.365s7.817-13.6.46-9.395c-7.359 4.204-7.392 10.446-7.917 10.446z" style="marker:none" color="#000" display="inline" overflow="visible" visibility="visible" fill="none" fill-opacity=".75" fill-rule="evenodd" stroke="#000" stroke-width="3.12172" stroke-linecap="round" stroke-linejoin="miter" stroke-miterlimit="4" stroke-dasharray="none" stroke-dashoffset="0" stroke-opacity="1" marker-start="none" marker-mid="none" marker-end="none"/><path d="M254.658 136.88c-3.973 7.64-6.673 17.28-12.974 24.144" style="marker:none" color="#000" display="inline" overflow="visible" visibility="visible" fill="none" fill-opacity=".75" fill-rule="evenodd" stroke="#000" stroke-width="3.12172" stroke-linecap="round" stroke-linejoin="miter" stroke-miterlimit="4" stroke-dasharray="none" stroke-dashoffset="0" stroke-opacity="1" marker-start="none" marker-mid="none" marker-end="none"/><path d="M88.316 54.891c.576-1.81 1.703-5.907 3.679-7.883 1.672-1.672 2.675-4.252 4.467-6.044 1.055-1.055 1.665-1.928 2.628-2.89 1.073-1.074 3.352-2.515 4.205-3.154.758-.57 2.427-.789 3.679-.789 1.115 0 2.889 1.313 3.678 2.103 1.115 1.114.722 3.343 1.052 4.992.316 1.581-.263 3.163-.263 4.73 0 1.413.46 2.759 1.051 3.942.763 1.526 2.614 3.019 4.205 3.417 1.127.281 2.395-.337 3.153-.526" style="marker:none" color="#000" display="inline" overflow="visible" visibility="visible" fill="none" fill-opacity=".75" fill-rule="evenodd" stroke="#000" stroke-width="3.12172" stroke-linecap="round" stroke-linejoin="miter" stroke-miterlimit="4" stroke-dasharray="none" stroke-dashoffset="0" stroke-opacity="1" marker-start="none" marker-mid="none" marker-end="none"/><path d="M155.589 125.843c1.291.535 1.882-.054 5.255.788s10.004 2.394 15.242 2.628 7.518-.882 11.825-5.781c4.307-4.9 6.667-13.295 6.57-20.497-.098-7.203-2.114-14.63-2.365-19.71-.252-5.079-.135-7.288 1.313-10.248 1.449-2.96 4.95-3.977 8.147-6.306s6.413-3.843 11.562-5.519c5.15-1.675 14.22 1.664 14.979 7.095.76 5.431-7.806 7.692-10.511 8.41-2.706.717-3.924-2.293-3.154-1.052s4.4 7.419 4.205 9.986-.792 1.57-2.89 1.577c-2.1.007-6.221-3.906-8.41-5.256s-1.444-3.714-3.416.526c-1.973 4.24.519 16.126 1.051 23.125s1.508 13.369-1.314 18.92c-4.519 5.465-11.854 13.518-19.446 14.453-3.993.459-12.778 1.638-18.132-.263s-10.975-7.846-11.825-11.3c-.85-3.452.022-2.111 1.314-1.576z" style="marker:none" color="#000" display="inline" overflow="visible" visibility="visible" fill="#a2a2a2" fill-opacity="1" fill-rule="evenodd" stroke="#000" stroke-width="3.12172" stroke-linecap="butt" stroke-linejoin="miter" stroke-miterlimit="4" stroke-dasharray="none" stroke-dashoffset="0" stroke-opacity="1" marker-start="none" marker-mid="none" marker-end="none"/><path d="M265.695 89.053c-6.368-.766-10.972-.67-15.736 3.959-3.03 3.165-6.767 12.094-4.756 17.446s7.437 11.98 14.973 12.496c7.537.517 16.717-2.169 18.793-11.932 2.075-9.764-6.002-14.518-6.738-17.815s5.588-4.885 5.656-7.602c.069-2.718-3.014-3.375-4.726-4.23-1.711-.854-3.487-1.052-3.904 1.299s-1.778 6.118-3.562 6.38" style="marker:none" color="#000" display="inline" overflow="visible" visibility="visible" fill="#000" fill-opacity="1" fill-rule="evenodd" stroke="none" stroke-width="1px" stroke-linecap="butt" stroke-linejoin="miter" stroke-miterlimit="4" stroke-dasharray="none" stroke-dashoffset="0" stroke-opacity="1" marker-start="none" marker-mid="none" marker-end="none"/><path d="M295.39 83.535c-.368.368-3.128-.585-3.942-.789-1.649-.412-1.893-.214-2.365-2.102-.437-3.863.78-7.673.788-11.562 0-1.358-1.54-1.57-2.89-1.84-1.795-.359-2.671.306-3.68 1.314-2.965 3.571-4.33 8.097-7.095 11.825l-.788 1.051" fill="none" fill-opacity=".75" fill-rule="evenodd" stroke="#000" stroke-width="3" stroke-linecap="butt" stroke-linejoin="miter" stroke-dasharray="none" stroke-opacity="1"/><path d="M288.032 88.133c1.312 1.762 1.687 4.616 2.759 7.227M300.383 74.075c2.272-1.386 4.538-2.662 7.095-3.417M299.069 79.067c2.877-.152 5.817-.169 8.672.263M298.28 84.586c1.679.8 3.411 1.571 4.73 2.89M293.55 86.163c.47.234 1.573 3.145 2.102 4.204.594 1.187 1.781 3.46 2.103 3.942" fill="none" fill-opacity=".75" fill-rule="evenodd" stroke="#000" stroke-width="2.1" stroke-linecap="butt" stroke-linejoin="miter" stroke-dasharray="none" stroke-opacity="1"/><path d="M317.99 77.49c-4.344-.087-6.473 5.012-8.673 8.147-5.128 6.14-6.78 13.93-11.3 20.497-3.45 4.064-4.224 9.293-5.78 14.19-1.745 5.214 4.841 5.018 8.408 4.73 10.568-7.856 13.121-18.045 17.941-30.235.716-2.149 5.258-13.796 6.235-15.752-2.341-.354-4.14-.465-6.832-1.576" style="marker:none" color="#000" display="inline" overflow="visible" visibility="visible" fill="#000" fill-opacity="1" fill-rule="evenodd" stroke="none" stroke-width="1px" stroke-linecap="butt" stroke-linejoin="miter" stroke-miterlimit="4" stroke-dasharray="none" stroke-dashoffset="0" stroke-opacity="1" marker-start="none" marker-mid="none" marker-end="none"/><path d="M329.815 79.593c-3.025 11.596-6.004 23.487-12.088 33.9-1.454 2.84-1.071 5.346 0 8.145.562 2.249 2.613 2.812 4.73 3.417 2.797.331 4.25-2.265 6.044-3.942 3.12-3.12 7.234-19.197 9.723-24.176 1.413-4.258 5.51-16.793-1.576-18.395-2.532-.322-4.703-.365-6.833 1.051z" style="marker:none" color="#000" display="inline" overflow="visible" visibility="visible" fill="#a2a2a2" fill-opacity="1" fill-rule="evenodd" stroke="#000" stroke-width="3.12172" stroke-linecap="butt" stroke-linejoin="miter" stroke-miterlimit="4" stroke-dasharray="none" stroke-dashoffset="0" stroke-opacity="1" marker-start="none" marker-mid="none" marker-end="none"/><path d="M318.252 134.515c-1.156.289-3.436.06-5.256.788-1.55.62-1.007 3.504-.525 4.468.845 1.69 2.86 1.839 4.467 1.839 1.89 0 3.03.123 4.205-1.051 1.098-1.099.827-2.957.525-4.467-.242-1.213-2.332-1.794-3.416-1.577z" style="marker:none" color="#000" display="inline" overflow="visible" visibility="visible" fill="#a2a2a2" fill-opacity="1" fill-rule="evenodd" stroke="#000" stroke-width="3.12172" stroke-linecap="butt" stroke-linejoin="miter" stroke-miterlimit="4" stroke-dasharray="none" stroke-dashoffset="0" stroke-opacity="1" marker-start="none" marker-mid="none" marker-end="none"/><path d="M295.39 132.938c-.2-1-4.277.036-5.256.526-1.842.92-1.577 1.219-1.577 3.416 0 1.675 2.43 4.105 3.68 4.73 1.721.861 3.227.61 4.992 1.051 1.665.416 1.577-2.288 1.577-3.416 0-1.706-.873-2.798-1.577-4.205-.445-.89-1.153-1.244-1.84-2.102" style="marker:none" color="#000" display="inline" overflow="visible" visibility="visible" fill="#000" fill-opacity="1" fill-rule="evenodd" stroke="none" stroke-width="1px" stroke-linecap="butt" stroke-linejoin="miter" stroke-miterlimit="4" stroke-dasharray="none" stroke-dashoffset="0" stroke-opacity="1" marker-start="none" marker-mid="none" marker-end="none"/><path d="m247.563 71.184-14.979 28.38-3.941-12.713-15.768 41.357 16.293-24.964 2.923 11.727z" style="marker:none" color="#000" display="inline" overflow="visible" visibility="visible" fill="none" fill-opacity=".75" fill-rule="evenodd" stroke="#000" stroke-width="3.12172" stroke-linecap="round" stroke-linejoin="miter" stroke-miterlimit="4" stroke-dasharray="none" stroke-dashoffset="0" stroke-opacity="1" marker-start="none" marker-mid="none" marker-end="none"/><path d="m146.436 114.092-3.79 11.357-2.068-9.659-11.368 38.207 11.334-21.748 2.593 9.166 13.609-29.879c-9.14 8.4-6.47.342-10.31 2.556" style="marker:none" color="#000" display="inline" overflow="visible" visibility="visible" fill="#000" fill-opacity="1" fill-rule="evenodd" stroke="none" stroke-width="1px" stroke-linecap="butt" stroke-linejoin="miter" stroke-miterlimit="4" stroke-dasharray="none" stroke-dashoffset="0" stroke-opacity="1" marker-start="none" marker-mid="none" marker-end="none"/><path d="m159.52 70.016 16.303-31.386 2.041 14.029 18.95-24.246-21.07 41.348-2.023-13.293-7.4 16.38z" style="marker:none" color="#000" display="inline" overflow="visible" visibility="visible" fill="#000" fill-opacity="1" fill-rule="evenodd" stroke="none" stroke-width="1px" stroke-linecap="butt" stroke-linejoin="miter" stroke-miterlimit="4" stroke-dasharray="none" stroke-dashoffset="0" stroke-opacity="1" marker-start="none" marker-mid="none" marker-end="none"/><path d="M241.256 167.1a2.89 2.89 0 1 1-5.781 0 2.89 2.89 0 1 1 5.781 0" style="marker:none" color="#000" display="inline" overflow="visible" visibility="visible" fill="#000" fill-opacity="1" fill-rule="evenodd" stroke="none" stroke-width="1px" stroke-linecap="butt" stroke-linejoin="miter" stroke-miterlimit="4" stroke-dasharray="none" stroke-dashoffset="0" stroke-opacity="1" marker-start="none" marker-mid="none" marker-end="none"/><path d="M163.472 83.01c0 2.321-1.706 4.204-3.81 4.204s-3.81-1.883-3.81-4.205 1.705-4.204 3.81-4.204 3.81 1.882 3.81 4.204" style="marker:none" color="#000" display="inline" overflow="visible" visibility="visible" fill="#000" fill-opacity="1" fill-rule="evenodd" stroke="none" stroke-width="1px" stroke-linecap="butt" stroke-linejoin="miter" stroke-miterlimit="4" stroke-dasharray="none" stroke-dashoffset="0" stroke-opacity="1" marker-start="none" marker-mid="none" marker-end="none"/><path d="M176.086 84.323c.002 2.323-1.823 4.208-4.073 4.208s-4.075-1.885-4.074-4.208c-.002-2.323 1.823-4.208 4.074-4.208s4.074 1.885 4.073 4.208" style="marker:none" color="#000" display="inline" overflow="visible" visibility="visible" fill="#000" fill-opacity="1" fill-rule="evenodd" stroke="none" stroke-width="1px" stroke-linecap="butt" stroke-linejoin="miter" stroke-miterlimit="4" stroke-dasharray="none" stroke-dashoffset="0" stroke-opacity="1" marker-start="none" marker-mid="none" marker-end="none"/><path d="M164.786 71.184c-4.646-2.046-9.081-2.42-13.402-1.314s-5.789 6.599-6.832 9.723-1.406 4.221-.263 7.358 3.455 8.824 4.204 11.825c.75 3.001.1 2.275-1.05 3.942s-3.805 4.687-4.468 6.57c-.663 1.882-1.768 1.273-1.051 3.416s5.048 2.019 7.883 2.365 3.98-4.361 5.782-3.68c1.802.683 6.68-.516 8.146-2.101 1.465-1.586 2.559-1.327 3.416.525s1.28 5.288 3.942 5.256 2.546-1.357 3.679-2.89c1.132-1.535 1.493-6.289.263-7.884s-1.347-3.022-1.052-4.205c.296-1.182 4.097-2.065 6.833-5.256 2.736-3.19 2.039-10.705-1.84-15.241-3.878-4.536-9.544-6.363-14.19-8.41z" style="marker:none" color="#000" display="inline" overflow="visible" visibility="visible" fill="none" fill-opacity=".75" fill-rule="evenodd" stroke="#000" stroke-width="3.12172" stroke-linecap="round" stroke-linejoin="miter" stroke-miterlimit="4" stroke-dasharray="none" stroke-dashoffset="0" stroke-opacity="1" marker-start="none" marker-mid="none" marker-end="none"/><path d="M161.633 90.761c-1.143-1.142-4.074 2.826-5.519 3.548-1.226.613-2.327 1.952-2.628 3.153-.521 2.086 2.424 3.387 3.416 2.89 2.099-1.048 1.6-2.412 2.366-3.94.812-1.626 2.31-.075 3.153 1.05.96 1.28 1.233 3.355 2.365.526.948-2.37.025-3.463-1.051-5.256-.378-.63-1.742-1.61-2.102-1.97" style="marker:none" color="#000" display="inline" overflow="visible" visibility="visible" fill="#000" fill-opacity="1" fill-rule="evenodd" stroke="none" stroke-width="1px" stroke-linecap="butt" stroke-linejoin="miter" stroke-miterlimit="4" stroke-dasharray="none" stroke-dashoffset="0" stroke-opacity="1" marker-start="none" marker-mid="none" marker-end="none"/><path d="M217.718 68.95c0 .498-.3.96-.789 1.209s-1.092.25-1.581 0-.79-.71-.789-1.209c0-.498.3-.96.789-1.209s1.092-.25 1.581 0c.49.25.79.71.789 1.209" style="marker:none" color="#000" display="inline" overflow="visible" visibility="visible" fill="#000" fill-opacity="1" fill-rule="evenodd" stroke="none" stroke-width="1px" stroke-linecap="butt" stroke-linejoin="miter" stroke-miterlimit="4" stroke-dasharray="none" stroke-dashoffset="0" stroke-opacity="1" marker-start="none" marker-mid="none" marker-end="none"/><path d="M128.898 56.593c0 1.847-1.165 3.345-2.602 3.345s-2.601-1.498-2.601-3.345 1.165-3.344 2.601-3.344c1.437 0 2.602 1.497 2.602 3.344" style="marker:none" color="#000" display="inline" overflow="visible" visibility="visible" fill="#000" fill-opacity="1" fill-rule="evenodd" stroke="none" stroke-width="1px" stroke-linecap="butt" stroke-linejoin="miter" stroke-miterlimit="4" stroke-dasharray="none" stroke-dashoffset="0" stroke-opacity="1" marker-start="none" marker-mid="none" marker-end="none"/></svg>